<?xml version="1.0" encoding="UTF-8"?>
<svg width="700pt" height="700pt" version="1.1" viewBox="0 0 700 700" xmlns="http://www.w3.org/2000/svg">
 <g>
  <path d="m583.33 367.5c-7.7305 0.011719-15.141 3.0898-20.609 8.5547-5.4648 5.4688-8.543 12.879-8.5547 20.613v70c-0.011719 4.6367-1.8594 9.082-5.1406 12.359-3.2773 3.2812-7.7227 5.1289-12.359 5.1406h-373.34c-4.6367-0.011719-9.082-1.8594-12.359-5.1406-3.2812-3.2773-5.1289-7.7227-5.1406-12.359v-70c0-10.422-5.5586-20.051-14.582-25.262-9.0234-5.207-20.141-5.207-29.168 0-9.0234 5.2109-14.582 14.84-14.582 25.262v70c0.023438 20.102 8.0234 39.379 22.238 53.594 14.215 14.215 33.492 22.215 53.594 22.238h373.34c20.102-0.023438 39.379-8.0234 53.594-22.238 14.215-14.215 22.215-33.492 22.238-53.594v-70c-0.011719-7.7344-3.0898-15.145-8.5547-20.613-5.4688-5.4648-12.879-8.543-20.613-8.5547z"/>
  <path d="m350 17.5c-7.7305 0.011719-15.145 3.0898-20.609 8.5547-5.4688 5.4688-8.5469 12.879-8.5586 20.613v264.39l-92.164-76.793c-5.9453-4.9414-13.609-7.3242-21.309-6.625-7.6953 0.69922-14.805 4.4258-19.758 10.359-4.9453 5.9453-7.3281 13.605-6.6289 21.305 0.70312 7.6992 4.4258 14.805 10.359 19.762l140 116.67c1.4727 1.043 3.0352 1.9492 4.668 2.707 1.0664 0.71484 2.1797 1.3516 3.3359 1.9102 6.7969 2.8633 14.461 2.8633 21.258 0 1.125-0.55859 2.2188-1.1914 3.2656-1.8867 1.6328-0.76172 3.1953-1.668 4.668-2.707l140-116.67c6.1719-5.1367 9.957-12.59 10.457-20.602 0.50391-8.0156-2.3242-15.883-7.8086-21.746-5.4844-5.8633-13.145-9.207-21.176-9.2422-6.8203 0.011719-13.422 2.4062-18.668 6.7656l-92.164 76.793v-264.39c-0.011719-7.7344-3.0898-15.145-8.5586-20.613-5.4648-5.4648-12.879-8.543-20.609-8.5547z"/>
 </g>
</svg>
